# xmcd
#
# Track frame offsets: 
#        150
#        21556
#        38592
#        60055
#        88416
#        110799
#        137421
#        158699
#        175089
#        195307
#
# Disc length: 2984 seconds
#
# Revision: 0
# Processed by: cddbd v1.5.2PL0 Copyright (c) Steve Scherf et al.
# Submitted via: ExactAudioCopy v0.99pb3
#
DISCID=780ba60a
DTITLE=Dave Keyes - Roots In The Blues
DYEAR=2009
DGENRE=Blues
TTITLE0=Blues Bearing Down
TTITLE1=Lovin' All The Time
TTITLE2=Bye Bye Baby
TTITLE3=All Black And Blue
TTITLE4=down To The Bones
TTITLE5=Didn't It Rain
TTITLE6=Inside You
TTITLE7=The Crawl
TTITLE8=You're My Party
TTITLE9=Angels Keep Watching Over Me
EXTD=
EXTT0=
EXTT1=
EXTT2=
EXTT3=
EXTT4=
EXTT5=
EXTT6=
EXTT7=
EXTT8=
EXTT9=
PLAYORDER=
